<svg xmlns="http://www.w3.org/2000/svg" width="480pt" height="290pt" viewBox="0 0 480 290" version="1.1" xmlns:xlink="http://www.w3.org/1999/xlink">
  <g id="surface2" transform="matrix(1,0,0,1,0,0)">
    <path style="stroke:none;fill-rule:evenodd;fill:rgb(8.235294%,72.156863%,79.607843%);fill-opacity:1" d="M 237.949219 33.898438 C 234.550781 33.933594 231.464844 34.765625 228.699219 36.398438 C 225.933594 38.035156 223.734375 40.234375 222.101562 43.000000 C 220.464844 45.734375 219.632812 48.816406 219.601562 52.250000 C 219.632812 55.683594 220.464844 58.785156 222.101562 61.550781 C 223.734375 64.285156 225.933594 66.464844 228.699219 68.101562 C 231.464844 69.765625 234.550781 70.617188 237.949219 70.648438 C 241.382812 70.617188 244.484375 69.785156 247.250000 68.148438 C 250.015625 66.515625 252.214844 64.316406 253.851562 61.550781 C 255.484375 58.785156 256.316406 55.683594 256.351562 52.250000 C 256.316406 48.816406 255.484375 45.734375 253.851562 43.000000 C 252.214844 40.234375 250.015625 38.035156 247.250000 36.398438 C 244.484375 34.765625 241.382812 33.933594 237.949219 33.898438 M 301.898438 146.750000 C 300.265625 148.183594 297.933594 149.214844 294.898438 149.851562 C 291.867188 150.484375 288.367188 150.785156 284.398438 150.750000 C 280.433594 150.714844 276.214844 150.417969 271.750000 149.851562 C 267.285156 149.285156 262.816406 148.500000 258.351562 147.500000 C 253.917969 146.500000 249.699219 145.367188 245.699219 144.101562 C 241.667969 142.800781 238.117188 141.433594 235.050781 140.000000 C 231.984375 138.535156 229.617188 137.066406 227.949219 135.601562 C 231.949219 136.632812 236.101562 137.550781 240.398438 138.351562 C 244.667969 139.148438 248.917969 139.785156 253.148438 140.250000 C 257.351562 140.714844 261.332031 141.015625 265.101562 141.148438 C 268.832031 141.250000 272.167969 141.148438 275.101562 140.851562 C 278.000000 140.515625 280.300781 139.964844 282.000000 139.199219 C 283.535156 138.398438 283.867188 137.449219 283.000000 136.351562 C 282.132812 135.214844 280.316406 134.015625 277.550781 132.750000 C 274.750000 131.484375 271.265625 130.250000 267.101562 129.050781 C 262.933594 127.816406 258.316406 126.714844 253.250000 125.750000 C 248.214844 124.785156 242.984375 124.035156 237.550781 123.500000 C 232.117188 122.964844 226.750000 122.750000 221.449219 122.851562 C 217.449219 122.949219 213.382812 123.148438 209.250000 123.449219 C 205.117188 123.785156 201.214844 124.285156 197.550781 124.949219 C 193.882812 125.582031 190.800781 126.433594 188.300781 127.500000 C 185.765625 128.566406 184.117188 129.882812 183.351562 131.449219 C 182.617188 133.015625 183.082031 134.867188 184.750000 137.000000 C 186.382812 139.000000 188.949219 140.882812 192.449219 142.648438 C 195.984375 144.449219 200.183594 146.050781 205.050781 147.449219 C 209.917969 148.851562 215.183594 149.984375 220.851562 150.851562 C 226.550781 151.714844 232.382812 152.234375 238.351562 152.398438 C 244.351562 152.566406 250.214844 152.285156 255.949219 151.550781 C 253.648438 153.117188 250.648438 154.332031 246.949219 155.199219 C 243.285156 156.066406 239.167969 156.582031 234.601562 156.750000 C 230.066406 156.949219 225.332031 156.816406 220.398438 156.351562 C 215.500000 155.851562 210.667969 155.035156 205.898438 153.898438 C 201.132812 152.765625 196.699219 151.316406 192.601562 149.550781 C 188.500000 147.750000 184.964844 145.648438 182.000000 143.250000 C 178.699219 140.484375 176.648438 137.984375 175.851562 135.750000 C 175.050781 133.484375 175.234375 131.464844 176.398438 129.699219 C 177.535156 127.933594 179.417969 126.367188 182.050781 125.000000 C 184.683594 123.667969 187.800781 122.515625 191.398438 121.550781 C 194.964844 120.582031 198.765625 119.785156 202.800781 119.148438 C 206.867188 118.550781 210.882812 118.082031 214.851562 117.750000 C 212.382812 115.351562 210.035156 112.234375 207.800781 108.398438 C 205.566406 104.566406 203.500000 100.250000 201.601562 95.449219 C 199.699219 90.648438 198.000000 85.601562 196.500000 80.300781 C 195.035156 74.964844 193.816406 69.632812 192.851562 64.300781 C 191.882812 58.933594 191.214844 53.765625 190.851562 48.800781 C 190.484375 43.832031 190.464844 39.285156 190.800781 35.148438 C 194.398438 51.617188 198.632812 65.167969 203.500000 75.800781 C 208.367188 86.433594 213.535156 94.351562 219.000000 99.550781 C 224.464844 104.714844 229.882812 107.332031 235.250000 107.398438 C 239.714844 107.433594 244.382812 105.582031 249.250000 101.851562 C 254.117188 98.117188 258.816406 92.851562 263.351562 86.050781 C 267.882812 79.214844 271.882812 71.214844 275.351562 62.050781 C 278.851562 52.882812 281.449219 42.867188 283.148438 32.000000 C 283.515625 36.199219 283.535156 40.882812 283.199219 46.050781 C 282.898438 51.214844 282.265625 56.617188 281.300781 62.250000 C 280.367188 67.917969 279.132812 73.566406 277.601562 79.199219 C 276.035156 84.832031 274.199219 90.199219 272.101562 95.300781 C 269.964844 100.433594 267.582031 105.050781 264.949219 109.148438 C 262.316406 113.250000 259.417969 116.582031 256.250000 119.148438 C 265.714844 119.851562 273.867188 121.234375 280.699219 123.300781 C 287.535156 125.367188 292.949219 127.800781 296.949219 130.601562 C 300.917969 133.367188 303.351562 136.183594 304.250000 139.050781 C 305.117188 141.917969 304.332031 144.484375 301.898438 146.750000 "/>
  </g>
  <g id="surface4">
    <text style="fill:rgb(95,95,95)" font-family="Kabel Bk BT" font-size="50" transform="matrix(1,0,0,1,173.6,205.15)" xml:space="preserve"><![CDATA[FinFree]]></text>
    <text style="fill:rgb(21,184,203)" font-family="Kabel Bk BT" font-size="35" transform="matrix(1,0,0,1,15.099999999999994,251.95)" xml:space="preserve"><![CDATA[Become financially independent]]></text>
  </g>
</svg>